<svg width="24" height="24" viewBox="0 0 24 24" fill="none" xmlns="http://www.w3.org/2000/svg">
<g clip-path="url(#clip0_61_37)">
<rect width="24" height="24" fill="white"/>
<path d="M22 0C23.1046 0 24 0.895431 24 2V22C24 23.1046 23.1046 24 22 24H2C0.895431 24 3.22133e-08 23.1046 0 22V2C0 0.895431 0.895431 3.22128e-08 2 0H22ZM16.7812 3C16.5575 3 16.3428 3.08884 16.1846 3.24707C16.0263 3.4053 15.9375 3.61997 15.9375 3.84375V5.25H8.0625V3.84375C8.0625 3.61997 7.97366 3.4053 7.81543 3.24707C7.6572 3.08884 7.44253 3 7.21875 3C6.99497 3 6.7803 3.08884 6.62207 3.24707C6.46384 3.4053 6.375 3.61997 6.375 3.84375V5.25H6.09375C5.27324 5.25 4.48644 5.57606 3.90625 6.15625C3.32606 6.73644 3 7.52324 3 8.34375V17.9062C3 18.7268 3.32606 19.5136 3.90625 20.0938C4.48644 20.6739 5.27324 21 6.09375 21H17.9062C18.7268 21 19.5136 20.6739 20.0938 20.0938C20.6739 19.5136 21 18.7268 21 17.9062V8.34375C21 7.52324 20.6739 6.73644 20.0938 6.15625C19.5136 5.57606 18.7268 5.25 17.9062 5.25H17.625V3.84375C17.625 3.61997 17.5362 3.4053 17.3779 3.24707C17.2197 3.08884 17.005 3 16.7812 3ZM17.9062 9.1875C18.6825 9.1875 19.3125 9.8175 19.3125 10.5938V17.9062C19.3125 18.6825 18.6825 19.3125 17.9062 19.3125H6.09375C5.3175 19.3125 4.6875 18.6825 4.6875 17.9062V10.5938C4.6875 9.8175 5.3175 9.1875 6.09375 9.1875H17.9062Z" fill="#C400C8"/>
</g>
<defs>
<clipPath id="clip0_61_37">
<rect width="24" height="24" fill="white"/>
</clipPath>
</defs>
</svg>
