<svg width="24" height="24" viewBox="0 0 24 24" fill="none" xmlns="http://www.w3.org/2000/svg">
<g clip-path="url(#clip0_5_9)">
<path d="M21.4285 0H2.57143C1.15178 0 0 1.15178 0 2.57143V21.4285C0 22.8482 1.15178 24 2.57143 24H21.4285C22.8482 24 24 22.8482 24 21.4285V2.57143C24 1.15178 22.8482 0 21.4285 0ZM14.8554 20.5554C14.4054 20.6357 14.2393 20.3572 14.2393 20.1268C14.2393 19.8374 14.25 18.3589 14.25 17.1643C14.25 16.3285 13.9715 15.7982 13.6446 15.5196C15.6268 15.3 17.7161 15.0268 17.7161 11.6035C17.7161 10.6285 17.3678 10.1411 16.8 9.51428C16.8911 9.28393 17.1965 8.33572 16.7089 7.10357C15.9643 6.87322 14.2607 8.0625 14.2607 8.0625C13.5535 7.86428 12.7876 7.7625 12.0322 7.7625C11.2768 7.7625 10.5107 7.86428 9.80352 8.0625C9.80352 8.0625 8.1 6.87322 7.35535 7.10357C6.86785 8.33035 7.16785 9.27857 7.26428 9.51428C6.69643 10.1411 6.42857 10.6285 6.42857 11.6035C6.42857 15.0107 8.42678 15.3 10.4089 15.5196C10.1518 15.75 9.92148 16.1465 9.84108 16.7143C9.33215 16.9446 8.03035 17.3411 7.25357 15.9696C6.76607 15.1232 5.8875 15.0535 5.8875 15.0535C5.01965 15.0428 5.82857 15.6 5.82857 15.6C6.40715 15.8678 6.81428 16.8965 6.81428 16.8965C7.33393 18.4874 9.8196 17.9518 9.8196 17.9518C9.8196 18.6965 9.8304 19.9072 9.8304 20.1268C9.8304 20.3572 9.6696 20.6357 9.21428 20.5554C5.67857 19.3715 3.20357 16.0072 3.20357 12.075C3.20357 7.15715 6.96428 3.42322 11.8822 3.42322C16.8 3.42322 20.7857 7.15715 20.7857 12.075C20.7911 16.0072 18.3911 19.3768 14.8554 20.5554ZM9.6 17.2822C9.49822 17.3035 9.40178 17.2607 9.39107 17.1911C9.38035 17.1107 9.45 17.0411 9.55178 17.0196C9.65352 17.0089 9.75 17.0518 9.76068 17.1215C9.77676 17.1911 9.70716 17.2607 9.6 17.2822ZM9.09107 17.2339C9.09107 17.3035 9.01072 17.3626 8.90357 17.3626C8.78572 17.3732 8.70535 17.3143 8.70535 17.2339C8.70535 17.1643 8.78572 17.1054 8.89285 17.1054C8.99465 17.0946 9.09107 17.1535 9.09107 17.2339ZM8.35715 17.175C8.33572 17.2446 8.22857 17.2768 8.1375 17.2446C8.03572 17.2232 7.96607 17.1428 7.9875 17.0732C8.00893 17.0035 8.11607 16.9715 8.20715 16.9928C8.31428 17.025 8.38393 17.1054 8.35715 17.175ZM7.69822 16.8857C7.65 16.9446 7.54822 16.9339 7.46785 16.8535C7.3875 16.7839 7.36607 16.6822 7.41965 16.6339C7.46785 16.575 7.56965 16.5857 7.65 16.6661C7.71965 16.7357 7.74643 16.8428 7.69822 16.8857ZM7.21072 16.3982C7.1625 16.4304 7.07143 16.3982 7.0125 16.3178C6.95357 16.2376 6.95357 16.1465 7.0125 16.1089C7.07143 16.0607 7.1625 16.0982 7.21072 16.1785C7.26965 16.2589 7.26965 16.3554 7.21072 16.3982ZM6.8625 15.8785C6.81428 15.9268 6.73393 15.9 6.675 15.8465C6.61607 15.7768 6.60535 15.6965 6.65357 15.6589C6.70178 15.6107 6.78215 15.6374 6.84107 15.6911C6.9 15.7607 6.91072 15.8411 6.8625 15.8785ZM6.50357 15.4822C6.48215 15.5304 6.4125 15.5411 6.35357 15.5035C6.28393 15.4715 6.25178 15.4126 6.27322 15.3643C6.29465 15.3322 6.35357 15.3161 6.42322 15.3428C6.49285 15.3804 6.525 15.4393 6.50357 15.4822Z" fill="#C400C8"/>
</g>
<defs>
<clipPath id="clip0_5_9">
<rect width="24" height="24" fill="white"/>
</clipPath>
</defs>
</svg>
