<svg width="24" height="24" viewBox="0 0 24 24" fill="none" xmlns="http://www.w3.org/2000/svg">
<g clip-path="url(#clip0_5_5)">
<path fill-rule="evenodd" clip-rule="evenodd" d="M2 0C0.895431 0 0 0.89543 0 2V22C0 23.1046 0.89543 24 2 24H22C23.1046 24 24 23.1046 24 22V2C24 0.895431 23.1046 0 22 0H2ZM17.45 5.41L18.73 4.41C19.029 4.16349 19.3931 4.00913 19.7782 3.9657C20.1632 3.92226 20.5526 3.99161 20.899 4.16533C21.2453 4.33905 21.5338 4.60964 21.7292 4.94422C21.9247 5.2788 22.0188 5.66296 22 6.05V17.64C22 18.0007 21.8567 18.3466 21.6017 18.6017C21.3466 18.8567 21.0007 19 20.64 19H17.45V11.28L12 15.37L6.55 11.28V19H3.36C2.9993 19 2.65338 18.8567 2.39833 18.6017C2.14328 18.3466 2 18.0007 2 17.64V6.05C1.97281 5.65959 2.06075 5.26979 2.25294 4.92887C2.44513 4.58796 2.73311 4.31092 3.08121 4.13208C3.42931 3.95324 3.82223 3.88046 4.21129 3.92275C4.60035 3.96504 4.96845 4.12055 5.27 4.37L6.55 5.37L12 9.46L17.45 5.41Z" fill="#C400C8"/>
</g>
<defs>
<clipPath id="clip0_5_5">
<rect width="24" height="24" fill="white"/>
</clipPath>
</defs>
</svg>
